# xmcd
#
# Track frame offsets:
#	151
#	23115
#	104784
#	139506
#	159534
#	192061
#	250140
#
# Disc length: 3726 seconds
#
# Revision: 1
# Processed by: cddbd v1.5.2PL0 Copyright (c) Steve Scherf et al.
# Submitted via: CDmax 2.0
#
DISCID=570e8c07
DTITLE=Eric Clapton - Have You Ever (disc2)
DYEAR=2006
DGENRE=Blues
TTITLE0=After Midnight
TTITLE1=Little Queenm of Spades
TTITLE2=Before You Accuse Me
TTITLE3=Wonderful Tonight
TTITLE4=Layla
TTITLE5=Cocaine
TTITLE6=Crossroads
EXTD=Eric Clapton\tguitar, vocals\nDoyle Bramhall II\tguitar\nDerek Trucks\tg
EXTD=uitar\nChris Stainton\tkeyboards\nTim Carmon\tkeyboards\nWillie Weeks\tb
EXTD=ass\nSteve Jordan\tdrums\nMichelle John\tbacking vocals\nSharon White\tb
EXTD=acking vocals\n\nRecorded live at Budokan, Tokyo, Japan on November 20th
EXTD=, 2006
EXTT0=
EXTT1=
EXTT2=
EXTT3=
EXTT4=
EXTT5=
EXTT6=
PLAYORDER=
